# xmcd
#
# Track frame offsets:
#	150
#	14684
#	30970
#	51150
#	65203
#	78542
#	89743
#	100195
#	113907
#	125585
#	136312
#	148133
#	159717
#	173035
#	187102
#	202827
#	214787
#	225988
#	229346
#	232510
#	243979
#
# Disc length: 3404 seconds
#
# Revision: 0
# Processed by: cddbd v1.5.2PL0 Copyright (c) Steve Scherf et al.
# Submitted via: EZCDDA 4.3.3.2
#
DISCID=250d4a15
DTITLE=BK Makos, Ernst Mosch, Vlado Kumpan, Die Innsbrucker - Polka Perlen
DYEAR=1900
DGENRE=
TTITLE0=Grüß Gott ihr Freunde
TTITLE1=Jehlika
TTITLE2=Rosmarie
TTITLE3=Südböhmische Polka
TTITLE4=Schöne Serenade
TTITLE5=Böhmisches Gold
TTITLE6=Start frei
TTITLE7=Kannst du Knödel kochen
TTITLE8=Astronautenmarsch
TTITLE9=Junges Leben
TTITLE10=Der Solotrommler Marsch
TTITLE11=Bis Bald auf Wiedersehen
TTITLE12=Gruß an Böhmen
TTITLE13=Heidrun Polka
TTITLE14=Gottfried auf Reisen
TTITLE15=Komotauer Polka
TTITLE16=Böhmisches Gold
TTITLE17=Gosselslied
TTITLE18=Ivamcicki
TTITLE19=Dompfaff
TTITLE20=Kaiserjäger Marsch
EXTD=
EXTT0=
EXTT1=
EXTT2=
EXTT3=
EXTT4=
EXTT5=
EXTT6=
EXTT7=
EXTT8=
EXTT9=
EXTT10=
EXTT11=
EXTT12=
EXTT13=
EXTT14=
EXTT15=
EXTT16=
EXTT17=
EXTT18=
EXTT19=
EXTT20=
PLAYORDER=
